<svg
    xmlns="http://www.w3.org/2000/svg"
    viewBox="0 0 64 64"
>
    <path
      d="M52,60.1V32.5C52,18.4,41.6,8,27.5,8S3,18.4,3,32.5v27.6H52z"
      fill="#feeaa6"
    />
    <circle cx="27.5" cy="24" r="8" fill="#f9b112" />
    <path
      d="M3,60.1l11-20.3l8.6,13.8l12.4-23.3L52,60.1H3z"
      fill="#706293"
    />
    <path
      d="M3,60.1l17.3-21.8L28,50.7l10.7-19.4l-3.3,4.4l12.6,14.4H3z"
      fill="#483d73"
    />
    <path
      d="M55,32.5C55,16.8,42.7,4.5,27.5,4.5S0,16.8,0,32.5v27.6C0,61.2,0.9,62,2,62h51c1.1,0,2-0.8,2-1.9V32.5z M52,58.1H3V32.5 C3,18.4,13.9,8,27.5,8S52,18.4,52,32.5V58.1z"
      fill="#f9b112"
    />
</svg>
